<?xml version="1.0" encoding="utf-8"?><svg xml:space="preserve" viewBox="0 0 100 100" y="0" x="0" xmlns="http://www.w3.org/2000/svg" id="圖層_1" version="1.1" width="200px" height="200px" xmlns:xlink="http://www.w3.org/1999/xlink" style="width:100%;height:100%;background-size:initial;background-repeat-y:initial;background-repeat-x:initial;background-position-y:initial;background-position-x:initial;background-origin:initial;background-color:initial;background-clip:initial;background-attachment:initial;animation-play-state:paused" ><g class="ldl-scale" style="transform-origin:50% 50%;transform:rotate(0deg) scale(0.8, 0.8);animation-play-state:paused" ><path fill="#f8b26a" d="M79 80.5h-7.4L57.2 15.8c-.7-3.4-3.7-5.8-7.2-5.8s-6.5 2.4-7.2 5.8L28.4 80.5H21c-2.2 0-4 1.8-4 4V86c0 2.2 1.8 4 4 4h58c2.2 0 4-1.8 4-4v-1.5c0-2.2-1.8-4-4-4z" style="fill:rgb(255, 230, 145);animation-play-state:paused" ></path>
<path d="M73 86.7l-2.5-11.5h-41L27 86.7z" fill="#f8b26a" style="fill:rgb(255, 230, 145);animation-play-state:paused" ></path>
<path d="M59.2 24.8H40.8l-2.3 10.4h23z" fill="#e0e0e0" style="fill:rgb(31, 31, 61);animation-play-state:paused" ></path>
<path d="M63.7 44.8H36.3L34 55.2h32z" fill="#e0e0e0" style="fill:rgb(31, 31, 61);animation-play-state:paused" ></path>
<path d="M68.1 64.8H31.9l-2.4 10.4h41z" fill="#e0e0e0" style="fill:rgb(31, 31, 61);animation-play-state:paused" ></path>
<metadata xmlns:d="https://loading.io/stock/" style="animation-play-state:paused" ><d:name style="animation-play-state:paused" >traffic sign</d:name>
<d:tags style="animation-play-state:paused" >road,under construction,caution,warning,traffic sign,transportatio</d:tags>
<d:license style="animation-play-state:paused" >by</d:license>
<d:slug style="animation-play-state:paused" >ykumi</d:slug></metadata></g><!-- generated by https://loading.io/ --></svg>